<?xml version="1.0" encoding="utf-8"?>
<!-- Generator: Adobe Illustrator 24.2.1, SVG Export Plug-In . SVG Version: 6.00 Build 0)  -->
<svg version="1.1" id="Capa_1" xmlns="http://www.w3.org/2000/svg" xmlns:xlink="http://www.w3.org/1999/xlink" x="0px" y="0px"
	 viewBox="0 0 2692.5 815" style="enable-background:new 0 0 2692.5 815;" xml:space="preserve">
<style type="text/css">
	.st0{fill:none;}
	.st1{opacity:0.83;}
	.st2{fill:#87888B;}
	.st3{fill:none;stroke:#0056A9;stroke-width:12.4673;stroke-miterlimit:10;}
	.st4{fill:none;stroke:#95DFDF;stroke-width:12.4673;stroke-miterlimit:10;}
	.st5{fill:url(#SVGID_1_);stroke:#0057AB;stroke-width:9.3504;stroke-miterlimit:10;}
	.st6{fill:#D6E03D;}
	.st7{fill:url(#SVGID_2_);stroke:#4ECFCD;stroke-width:9.3504;stroke-miterlimit:10;}
	.st8{fill:#F6FAB6;}
	.st9{fill:#FBFCE3;}
	.st10{fill:#E5EB8B;}
	.st11{fill:url(#SVGID_3_);stroke:#0057AB;stroke-width:9.3504;stroke-miterlimit:10;}
	.st12{fill:url(#SVGID_4_);stroke:#4ECFCD;stroke-width:9.3504;stroke-miterlimit:10;}
	.st13{fill:url(#SVGID_5_);stroke:#0057AB;stroke-width:9.3504;stroke-miterlimit:10;}
	.st14{fill:url(#SVGID_6_);stroke:#4ECFCD;stroke-width:9.3504;stroke-miterlimit:10;}
</style>
<image style="overflow:visible;" width="175" height="162" xlink:href="../../../../Descargas/image.png"  transform="matrix(1 0 0 1 -1326.2263 1338.3707)">
</image>
<line class="st0" x1="445.4" y1="452.3" x2="435.5" y2="451.3"/>
<g class="st1">
	<path class="st2" d="M-1238.7,1132.8c22,0,39.9,16.4,39.9,36.6s-17.8,36.6-39.9,36.6s-39.9-16.4-39.9-36.6
		S-1260.7,1132.8-1238.7,1132.8 M-1238.7,1129.8c-23.6,0-42.9,17.8-42.9,39.6s19.2,39.6,42.9,39.6c23.6,0,42.9-17.8,42.9-39.6
		S-1215.1,1129.8-1238.7,1129.8L-1238.7,1129.8z"/>
</g>
<g>
	<g>
		<g>
			<path class="st3" d="M384.2,763.4l5.2-103.9c7.1-0.3,14.3-0.8,21.5-1.5l0,0c6-0.6,12.1-1.4,18.1-2.3
				c70.8-11.1,133.2-43.5,175.5-91.2c31.1-35.1,47.7-75,48-114.4l103.8-0.5C756.1,596.2,625,729.8,445.2,758.2
				c-7.9,1.2-15.8,2.2-23.6,3C409,762.5,396.5,763.3,384.2,763.4z"/>
			<path class="st4" d="M427.6,50.6l-11.3,103.4c-7.1-0.2-14.3-0.1-21.5,0.2l0,0c-6,0.3-12.1,0.7-18.2,1.3
				c-71.4,7-135.5,35.7-180.5,80.7c-33.1,33.2-52,72-54.7,111.3L37.7,342C46.5,195.7,185.3,70,366.4,52.3c8-0.8,15.9-1.3,23.7-1.6
				C402.8,50.1,415.3,50,427.6,50.6z"/>
			
				<linearGradient id="SVGID_1_" gradientUnits="userSpaceOnUse" x1="-2474.8501" y1="651.3666" x2="-2228.657" y2="651.3666" gradientTransform="matrix(-1 0 0 -1 -1738.0902 971.267)">
				<stop  offset="0" style="stop-color:#0055A1"/>
				<stop  offset="0.738" style="stop-color:#00A4A8"/>
			</linearGradient>
			<path class="st5" d="M490.6,202.6l44.9-98.5c118.3,50.3,201.3,167.7,201.3,304.4c0,45-9,87.9-25.3,127.1l-101-38.9
				c11.7-27,18.2-56.8,18.2-88.1C628.6,315.7,571.5,236,490.6,202.6z"/>
			<g>
				<g>
					<path class="st6" d="M394.2,642.5c-139,0-252.1-107-252.1-238.6c0-131.6,113.1-238.6,252.1-238.6c139,0,252.1,107,252.1,238.6
						C646.3,535.5,533.2,642.5,394.2,642.5z M394.2,191c-124.8,0-226.4,95.5-226.4,212.8c0,117.4,101.5,212.8,226.4,212.8
						s226.3-95.5,226.3-212.8C620.5,286.5,519,191,394.2,191z"/>
				</g>
			</g>
			<linearGradient id="SVGID_2_" gradientUnits="userSpaceOnUse" x1="50.4412" y1="489.8985" x2="296.6344" y2="489.8985">
				<stop  offset="0" style="stop-color:#DBDF38"/>
				<stop  offset="0.7765" style="stop-color:#00AFA7"/>
			</linearGradient>
			<path class="st7" d="M296.6,607.2l-44.9,98.5C133.4,655.3,50.4,538,50.4,401.2c0-45,9-87.9,25.3-127.1l101,38.9
				c-11.7,27-18.2,56.8-18.2,88.1C158.6,494.1,215.7,573.8,296.6,607.2z"/>
		</g>
		<g>
			<g>
				<g>
					<path class="st2" d="M310.6,444.6c-0.3-0.8-0.1-1.8,1.1-2.3c7.6-3.3,14.1-13.5,4.7-35.4c-8.3-19.3-14.4-26.8-21.9-23.6
						c-9.5,4.1-8.6,26.7-8.4,28.9c0.2,1.5-0.1,2.3-1.5,2.9c-1,0.4-1.7-0.4-2.2-2c-5.1-17.7-0.4-35.7,11.6-40.9
						c11.8-5.1,25.3,2.7,34.4,23.9c9.6,22.3,5,36.5-1.4,42.6l0.2,0.4c8.9-0.4,21.4,4.1,32.7,30.5c9.8,22.9,9.6,39.7-8.2,47.3
						c-16,6.9-29.5-10.4-36.7-27.2c-0.7-1.5-0.7-2.6,0.1-3c1.3-0.6,2.3-0.3,3.1,1.4c3.4,8,18.4,24,28.3,19.7
						c7.1-3,8.7-10.3-1.9-34.9c-9.2-21.6-22.8-28.4-30.6-25c-1.1,0.5-2,0.2-2.3-0.6L310.6,444.6z"/>
					<path class="st2" d="M384.9,375.7c0.6,1.3,0.3,2.3-0.6,2.8c-0.8,0.3-2,0-2.6-1.4c-2.1-5-18.2-23.4-28.5-19
						c-7.2,3.1-4.2,17.6,10,50.8l0.4-0.2c1.1-4.3,3.8-9.1,8-10.9c14.1-6.1,29.3,5.7,39.8,30.1c9.2,21.4,16.6,56.1-0.9,63.6
						c-13.9,6-30.3-4.2-58-68.9c-15.3-35.7-21.5-66.4-3.4-74.2C364.6,342,378.9,361.6,384.9,375.7z M397.3,434.1
						c-8.1-18.9-14.9-29.5-22.7-26.2c-8,3.4-5,15.7-0.2,27c16.4,38.2,24.8,50.4,32,47.3C413.5,479.1,410.4,464.6,397.3,434.1z"/>
					<path class="st2" d="M459,377.2c19.8,46.2,29.2,81.2,10.1,89.4c-19.3,8.3-38.2-22.7-58-68.9c-13.2-30.9-22.6-66-3.4-74.2
						C426.8,315.3,445.7,346.3,459,377.2z M444.6,382.7c-17.3-40.4-25.7-52.7-32.8-49.6c-7.2,3.1-4.2,17.6,13.1,58.1
						c24.4,56.9,32.8,69.1,40,66C472,454,469,439.5,444.6,382.7z"/>
				</g>
				<g>
					<path class="st2" d="M491.9,326.6c8.7,20.3,11.5,36.2-1.9,41.9c-13.6,5.8-23.2-7.2-31.8-27.5c-5.8-13.6-8.7-29.5,4.9-35.3
						C476.5,300,486.1,313,491.9,326.6z M481.8,330.6c-7.6-17.7-12-22.8-17-20.7c-5.1,2.2-4.5,8.9,3.1,26.6
						c10.7,24.9,15.1,30,20.2,27.8C493.2,362.2,492.5,355.5,481.8,330.6z"/>
				</g>
			</g>
		</g>
	</g>
	<g>
		<g>
			<path class="st8" d="M563.7,454.5c3.1,1.4,4.6,5,3.4,8.2c-26.2,65.3-94.2,111.9-173.8,111.9c-21.5,0-42.2-3.4-61.4-9.7
				c-3.7-1.2-5.6-5.4-3.9-9l0,0c1.4-2.9,4.8-4.3,7.9-3.3c18,5.8,37.3,9,57.4,9c74.3,0,137.6-43.2,161.8-103.8
				C556.4,454.5,560.4,453,563.7,454.5L563.7,454.5z"/>
			<path class="st8" d="M460.9,251.6L460.9,251.6c-1.5,3-4.9,4.3-7.9,3.2c-18.6-6.3-38.7-9.8-59.8-9.8c-72.5,0-134.6,41.2-160,99.5
				c-1.5,3.4-5.5,4.8-8.8,3.1h0c-3-1.5-4.4-5.2-3-8.3c27.5-62.8,94.2-107.3,171.9-107.3c22.5,0,44,3.7,63.9,10.5
				C460.9,243.9,462.7,248.1,460.9,251.6z"/>
		</g>
	</g>
	<g>
		<g>
			<path class="st9" d="M544.8,382.2L544.8,382.2c-3.1,0.6-5.9-1.5-6.5-4.5c-13.1-63.3-73.6-111.1-146.3-111.1
				c-7.3,0-14.4,0.5-21.5,1.4c-2.8,0.4-5.4-1.3-6.2-4l0,0c-0.9-3.2,1.2-6.6,4.5-7.1c7.5-1,15.3-1.5,23.1-1.5
				c78,0,143.2,51.9,157.3,120.3C549.9,378.7,547.8,381.7,544.8,382.2z"/>
			<path class="st9" d="M425,542.1c0.9,3.2-1.2,6.4-4.4,7c-9.3,1.6-18.9,2.4-28.7,2.4c-77.1,0-141.7-50.7-156.8-117.9
				c-0.7-3.3,1.4-6.5,4.8-6.9h0c2.9-0.3,5.5,1.6,6.1,4.4C260,493.4,320,540.2,392,540.2c9.1,0,18-0.8,26.7-2.2
				C421.5,537.6,424.3,539.3,425,542.1L425,542.1z"/>
		</g>
	</g>
	<g>
		<path class="st10" d="M418.7,589.1c1,5.7-3.2,10.9-8.9,11.3c-5.2,0.4-10.4,0.5-15.7,0.5c-110.9,0-202.3-78.1-213.6-178.1
			c-0.7-5.9,4.1-10.9,10-10.7l0,0c4.8,0.2,8.8,3.8,9.3,8.5C209.9,511,293,581.5,394.1,581.5c4.9,0,9.7-0.2,14.5-0.5
			C413.6,580.7,417.9,584.2,418.7,589.1L418.7,589.1z"/>
		<path class="st10" d="M599,393L599,393c-5.3,0.4-9.9-3.4-10.5-8.6c-9.6-90.8-93-161.7-194.4-161.7c-5.4,0-10.7,0.2-16,0.6
			c-5.1,0.4-9.6-3.4-10.2-8.5v0c-0.7-5.5,3.4-10.5,8.9-10.9c5.7-0.4,11.5-0.6,17.3-0.6c111.2,0,203,78.6,213.7,179.1
			C608.4,387.7,604.4,392.6,599,393z"/>
	</g>
</g>
<line class="st0" x1="-1021.2" y1="452.3" x2="-1031.1" y2="451.3"/>
<g>
	<g>
		<g>
			<path class="st3" d="M-945,920.9l7.5-149.8c10.2-0.4,20.6-1.1,31-2.2l0.1,0c8.6-0.9,17.4-2,26-3.4
				c102.1-16.1,191.9-62.8,252.9-131.4c44.9-50.6,68.8-108.1,69.2-164.8l149.6-0.7c-0.3,211.2-189.3,403.9-448.5,444.8
				c-11.4,1.8-22.7,3.2-34,4.4C-909.2,919.6-927.2,920.7-945,920.9z"/>
			<path class="st4" d="M-882.4-106.6l-16.3,149.1c-10.2-0.2-20.7-0.1-31.1,0.4l-0.1,0c-8.7,0.4-17.5,1-26.2,1.8
				c-102.9,10-195.3,51.4-260.2,116.3c-47.8,47.9-75,103.9-78.8,160.5l-149.4-8.1c12.7-210.8,212.8-392.1,473.9-417.6
				c11.5-1.1,22.9-1.9,34.2-2.4C-918.2-107.4-900.2-107.5-882.4-106.6z"/>
			
				<linearGradient id="SVGID_3_" gradientUnits="userSpaceOnUse" x1="-1301.2987" y1="689.734" x2="-946.4183" y2="689.734" gradientTransform="matrix(-1 0 0 -1 -1738.0902 971.267)">
				<stop  offset="0" style="stop-color:#0055A1"/>
				<stop  offset="0.738" style="stop-color:#00A4A8"/>
			</linearGradient>
			<path class="st11" d="M-791.7,112.5l64.8-141.9c170.6,72.6,290.1,241.7,290.1,438.8c0,64.9-13,126.7-36.5,183.1l-145.6-56.1
				c16.9-39,26.2-81.9,26.2-127C-592.6,275.5-675,160.6-791.7,112.5z"/>
			<g>
				<g>
					<path class="st6" d="M-930.6,746.5c-200.4,0-363.4-154.3-363.4-343.9c0-189.6,163-343.9,363.4-343.9
						c200.4,0,363.4,154.3,363.4,343.9C-567.2,592.2-730.2,746.5-930.6,746.5z M-930.6,95.8c-179.9,0-326.3,137.6-326.3,306.8
						c0,169.2,146.4,306.8,326.3,306.8s326.3-137.6,326.3-306.8C-604.3,233.4-750.7,95.8-930.6,95.8z"/>
				</g>
			</g>
			<linearGradient id="SVGID_4_" gradientUnits="userSpaceOnUse" x1="-1426.1005" y1="526.5804" x2="-1071.22" y2="526.5804">
				<stop  offset="0" style="stop-color:#DBDF38"/>
				<stop  offset="0.7765" style="stop-color:#00AFA7"/>
			</linearGradient>
			<path class="st12" d="M-1071.2,695.6l-64.8,141.9c-170.6-72.6-290.1-241.7-290.1-438.8c0-64.9,13-126.7,36.5-183.1l145.6,56.1
				c-16.9,39-26.2,81.9-26.2,127C-1270.3,532.6-1187.9,647.5-1071.2,695.6z"/>
		</g>
		<g>
			<g>
				<g>
					<path class="st2" d="M-1051.1,461.3c-0.5-1.1-0.1-2.6,1.5-3.3c11-4.7,20.3-19.4,6.8-51.1c-11.9-27.8-20.8-38.6-31.5-34
						c-13.8,5.9-12.5,38.5-12.1,41.6c0.3,2.2-0.2,3.3-2.1,4.2c-1.4,0.6-2.5-0.5-3.2-2.9c-7.3-25.5-0.6-51.5,16.7-58.9
						c17.1-7.3,36.5,3.9,49.6,34.4c13.8,32.2,7.2,52.6-2,61.4l0.2,0.5c12.8-0.6,30.9,6,47.1,43.9c14.1,33,13.8,57.2-11.8,68.2
						c-23.1,9.9-42.5-15-52.9-39.2c-0.9-2.2-1-3.8,0.1-4.3c1.9-0.8,3.4-0.5,4.4,2c5,11.6,26.5,34.5,40.8,28.4
						c10.2-4.4,12.5-14.8-2.7-50.3c-13.3-31.1-32.8-40.9-44.1-36.1c-1.7,0.7-2.8,0.2-3.3-0.9L-1051.1,461.3z"/>
					<path class="st2" d="M-943.9,362c0.8,1.9,0.5,3.4-0.9,4c-1.1,0.5-2.9,0-3.8-2c-3.1-7.2-26.2-33.7-41-27.3
						c-10.5,4.5-6,25.4,14.5,73.2l0.5-0.2c1.6-6.2,5.5-13.1,11.5-15.7c20.4-8.7,42.3,8.2,57.4,43.4c13.2,30.8,23.9,80.9-1.4,91.7
						c-20.1,8.6-43.6-6-83.6-99.3c-22-51.4-31-95.8-4.8-107C-973.2,313.3-952.6,341.6-943.9,362z M-926.1,446.1
						c-11.7-27.2-21.5-42.5-32.8-37.7c-11.6,5-7.2,22.6-0.3,38.9c23.6,55,35.7,72.6,46.1,68.1C-902.8,511-907.2,490.1-926.1,446.1z"
						/>
					<path class="st2" d="M-837.2,364.1c28.5,66.6,42,117.1,14.5,128.9c-27.8,11.9-55-32.7-83.6-99.3c-19.1-44.6-32.6-95.1-4.8-107
						C-883.6,274.9-856.3,319.5-837.2,364.1z M-857.9,372c-25-58.3-37.1-75.9-47.3-71.5c-10.5,4.5-6,25.4,18.9,83.7
						c35.1,82,47.2,99.6,57.7,95.1C-818.4,474.9-822.8,454-857.9,372z"/>
				</g>
				<g>
					<path class="st2" d="M-789.8,291.1c12.5,29.2,16.6,52.1-2.8,60.5c-19.6,8.4-33.4-10.4-45.9-39.6c-8.4-19.5-12.5-42.5,7.1-50.9
						C-811.9,252.8-798.1,271.6-789.8,291.1z M-804.3,296.9c-11-25.6-17.3-32.9-24.5-29.8c-7.4,3.2-6.5,12.8,4.5,38.3
						c15.4,36,21.7,43.2,29.1,40.1C-787.9,342.5-788.9,332.9-804.3,296.9z"/>
				</g>
			</g>
		</g>
	</g>
	<g>
		<g>
			<path class="st8" d="M-686.3,475.6c4.5,2,6.7,7.2,4.8,11.8c-37.7,94.1-135.8,161.3-250.5,161.3c-31,0-60.8-4.9-88.5-13.9
				c-5.4-1.8-8.1-7.8-5.6-12.9l0,0c2-4.2,6.9-6.2,11.4-4.8c25.9,8.4,53.7,13,82.8,13c107.1,0,198.4-62.3,233.3-149.6
				C-696.7,475.6-691,473.4-686.3,475.6L-686.3,475.6z"/>
			<path class="st8" d="M-834.4,183.1L-834.4,183.1c-2.1,4.3-7,6.1-11.4,4.6c-26.9-9.1-55.9-14.1-86.1-14.1
				c-104.6,0-194.1,59.4-230.7,143.4c-2.1,4.9-8,6.8-12.7,4.5l0,0c-4.3-2.2-6.3-7.4-4.4-11.9C-1140.1,219-1044,155-932,155
				c32.4,0,63.4,5.3,92.1,15.1C-834.4,171.9-831.8,178-834.4,183.1z"/>
		</g>
	</g>
	<g>
		<g>
			<path class="st9" d="M-713.5,371.4L-713.5,371.4c-4.4,0.8-8.5-2.1-9.4-6.5c-18.9-91.2-106.1-160.2-210.9-160.2
				c-10.5,0-20.8,0.7-30.9,2c-4,0.5-7.8-1.9-8.9-5.8l0,0c-1.3-4.7,1.7-9.5,6.6-10.2c10.9-1.5,22-2.2,33.3-2.2
				c112.5,0,206.5,74.8,226.7,173.4C-706.1,366.3-709.1,370.6-713.5,371.4z"/>
			<path class="st9" d="M-886.2,601.8c1.2,4.6-1.7,9.3-6.3,10.1c-13.4,2.3-27.2,3.4-41.3,3.4c-111.2,0-204.3-73-226-169.9
				c-1.1-4.7,2.1-9.3,6.9-9.9h0c4.2-0.5,7.9,2.3,8.8,6.4c20.1,89.8,106.6,157.3,210.3,157.3c13.1,0,26-1.1,38.4-3.2
				C-891.2,595.3-887.2,597.7-886.2,601.8L-886.2,601.8z"/>
		</g>
	</g>
	<g>
		<path class="st10" d="M-895.2,669.6c1.4,8.2-4.6,15.8-12.8,16.3c-7.5,0.5-15,0.8-22.7,0.8c-159.8,0-291.7-112.6-307.9-256.7
			c-1-8.5,5.9-15.8,14.4-15.5l0,0c6.9,0.2,12.7,5.4,13.4,12.3c14.5,130.3,134.3,231.9,280,231.9c7,0,14-0.2,20.9-0.7
			C-902.7,657.4-896.4,662.5-895.2,669.6L-895.2,669.6z"/>
		<path class="st10" d="M-635.4,386.9L-635.4,386.9c-7.6,0.6-14.3-4.9-15.1-12.4c-13.9-130.9-134.1-233.1-280.2-233.1
			c-7.8,0-15.4,0.3-23,0.8c-7.4,0.5-13.8-4.9-14.7-12.3v0c-1-7.9,4.9-15.1,12.9-15.7c8.2-0.6,16.5-0.9,24.9-0.9
			c160.3,0,292.6,113.3,308.1,258.1C-621.8,379.3-627.6,386.3-635.4,386.9z"/>
	</g>
</g>
<line class="st0" x1="-2148.7" y1="452.3" x2="-2158.6" y2="451.3"/>
<g>
	<g>
		<g>
			<path class="st3" d="M-2072.5,920.9l7.5-149.8c10.2-0.4,20.6-1.1,31-2.2l0.1,0c8.6-0.9,17.4-2,26-3.4
				c102.1-16.1,191.9-62.8,252.9-131.4c44.9-50.6,68.8-108.1,69.2-164.8l149.6-0.7c-0.3,211.2-189.3,403.9-448.5,444.8
				c-11.4,1.8-22.7,3.2-34,4.4C-2036.7,919.6-2054.7,920.7-2072.5,920.9z"/>
			<path class="st4" d="M-2009.9-106.6l-16.3,149.1c-10.2-0.2-20.7-0.1-31.1,0.4l-0.1,0c-8.7,0.4-17.5,1-26.2,1.8
				c-102.9,10-195.3,51.4-260.2,116.3c-47.8,47.9-75,103.9-78.8,160.5l-149.4-8.1c12.7-210.8,212.8-392.1,473.9-417.6
				c11.5-1.1,22.9-1.9,34.2-2.4C-2045.7-107.4-2027.7-107.5-2009.9-106.6z"/>
			
				<linearGradient id="SVGID_5_" gradientUnits="userSpaceOnUse" x1="-173.8093" y1="689.734" x2="181.0711" y2="689.734" gradientTransform="matrix(-1 0 0 -1 -1738.0902 971.267)">
				<stop  offset="0" style="stop-color:#0055A1"/>
				<stop  offset="0.738" style="stop-color:#00A4A8"/>
			</linearGradient>
			<path class="st13" d="M-1919.2,112.5l64.8-141.9c170.6,72.6,290.1,241.7,290.1,438.8c0,64.9-13,126.7-36.5,183.1l-145.6-56.1
				c16.9-39,26.2-81.9,26.2-127C-1720.1,275.5-1802.5,160.6-1919.2,112.5z"/>
			<g>
				<g>
					<path class="st6" d="M-2058.1,746.5c-200.4,0-363.4-154.3-363.4-343.9c0-189.6,163-343.9,363.4-343.9
						c200.4,0,363.4,154.3,363.4,343.9C-1694.7,592.2-1857.7,746.5-2058.1,746.5z M-2058.1,95.8c-179.9,0-326.3,137.6-326.3,306.8
						c0,169.2,146.4,306.8,326.3,306.8s326.3-137.6,326.3-306.8C-1731.8,233.4-1878.2,95.8-2058.1,95.8z"/>
				</g>
			</g>
			<linearGradient id="SVGID_6_" gradientUnits="userSpaceOnUse" x1="-2553.5898" y1="526.5804" x2="-2198.7095" y2="526.5804">
				<stop  offset="0" style="stop-color:#DBDF38"/>
				<stop  offset="0.7765" style="stop-color:#00AFA7"/>
			</linearGradient>
			<path class="st14" d="M-2198.7,695.6l-64.8,141.9c-170.6-72.6-290.1-241.7-290.1-438.8c0-64.9,13-126.7,36.5-183.1l145.6,56.1
				c-16.9,39-26.2,81.9-26.2,127C-2397.7,532.6-2315.4,647.5-2198.7,695.6z"/>
		</g>
		<g>
			<g>
				
					<text transform="matrix(0.9191 -0.394 0.394 0.9191 -2153.1545 579.9495)" class="st2" style="font-family:'BirchStd'; font-size:299.2142px;">360</text>
				
					<text transform="matrix(1.477 -0.6331 0.394 0.9191 -1949.9219 364.3917)" class="st2" style="font-family:'BirchStd'; font-size:131.2567px;">0</text>
			</g>
		</g>
	</g>
	<g>
		<g>
			<path class="st8" d="M-1813.7,475.6c4.5,2,6.7,7.2,4.8,11.8c-37.7,94.1-135.8,161.3-250.5,161.3c-31,0-60.8-4.9-88.5-13.9
				c-5.4-1.8-8.1-7.8-5.6-12.9l0,0c2-4.2,6.9-6.2,11.4-4.8c25.9,8.4,53.7,13,82.8,13c107.1,0,198.4-62.3,233.3-149.6
				C-1824.2,475.6-1818.5,473.4-1813.7,475.6L-1813.7,475.6z"/>
			<path class="st8" d="M-1961.9,183.1L-1961.9,183.1c-2.1,4.3-7,6.1-11.4,4.6c-26.9-9.1-55.9-14.1-86.1-14.1
				c-104.6,0-194.1,59.4-230.7,143.4c-2.1,4.9-8,6.8-12.7,4.5l0,0c-4.4-2.2-6.3-7.4-4.4-11.9c39.6-90.6,135.7-154.6,247.8-154.6
				c32.4,0,63.4,5.3,92.1,15.1C-1961.9,171.9-1959.3,178-1961.9,183.1z"/>
		</g>
	</g>
	<g>
		<g>
			<path class="st9" d="M-1841,371.4L-1841,371.4c-4.4,0.8-8.5-2.1-9.4-6.5c-18.9-91.2-106.1-160.2-210.9-160.2
				c-10.5,0-20.8,0.7-30.9,2c-4,0.5-7.8-1.9-8.9-5.8v0c-1.3-4.7,1.7-9.5,6.6-10.2c10.9-1.5,22-2.2,33.3-2.2
				c112.5,0,206.5,74.8,226.7,173.4C-1833.6,366.3-1836.6,370.6-1841,371.4z"/>
			<path class="st9" d="M-2013.6,601.8c1.2,4.6-1.7,9.3-6.3,10.1c-13.4,2.3-27.2,3.4-41.3,3.4c-111.2,0-204.3-73-226-169.9
				c-1.1-4.7,2.1-9.3,6.9-9.9l0,0c4.2-0.5,7.9,2.3,8.8,6.4c20.1,89.8,106.6,157.3,210.3,157.3c13.1,0,26-1.1,38.4-3.2
				C-2018.7,595.3-2014.7,597.7-2013.6,601.8L-2013.6,601.8z"/>
		</g>
	</g>
	<g>
		<path class="st10" d="M-2022.7,669.6c1.4,8.2-4.6,15.8-12.8,16.3c-7.5,0.5-15,0.8-22.7,0.8c-159.8,0-291.7-112.6-307.9-256.7
			c-1-8.5,5.9-15.8,14.4-15.5l0,0c6.9,0.2,12.7,5.4,13.4,12.3c14.5,130.3,134.3,231.9,280,231.9c7,0,14-0.2,20.9-0.7
			C-2030.2,657.4-2023.9,662.5-2022.7,669.6L-2022.7,669.6z"/>
		<path class="st10" d="M-1762.9,386.9L-1762.9,386.9c-7.6,0.6-14.3-4.9-15.1-12.4c-13.9-130.9-134.1-233.1-280.2-233.1
			c-7.8,0-15.4,0.3-23,0.8c-7.4,0.5-13.8-4.9-14.7-12.3v0c-1-7.9,4.9-15.1,12.9-15.7c8.2-0.6,16.5-0.9,24.9-0.9
			c160.3,0,292.6,113.3,308.1,258.1C-1749.3,379.3-1755.1,386.3-1762.9,386.9z"/>
	</g>
</g>
<g>
	<path class="st2" d="M1064.4,305.1l-23.3,7.8c-2.9-9.9-7.1-17.4-12.7-22.6c-5.6-5.1-12.3-7.7-20.3-7.7c-13.6,0-23.8,7.8-30.4,23.5
		c-6.6,15.7-10,39.6-10,71.8c0,34.3,3.1,58.9,9.4,73.8c6.3,14.9,16.5,22.4,30.6,22.4c10.9,0,18.9-3.9,24.1-11.7
		c5.2-7.8,7.8-20.1,7.8-36.8v-33.9h-38.5v-18.9h63.3v50.3c0,23.3-4.8,40.8-14.5,52.5c-9.7,11.7-24.1,17.5-43.3,17.5
		c-22.5,0-38.9-9.1-49.3-27.4c-10.4-18.3-15.5-47.4-15.5-87.5c0-39.2,5.5-68.2,16.6-86.9c11.1-18.8,28.1-28.2,51.3-28.2
		c12.9,0,24,3.6,33.5,10.8C1052.5,281.2,1059.6,291.6,1064.4,305.1z"/>
	<path class="st2" d="M1097.8,339.6h22.9V360c3.4-7.1,7.7-12.4,12.8-16.1c5.1-3.7,11-5.7,17.7-6.1v20.1c-11.4,0.5-19.3,3.7-23.8,9.7
		c-4.5,5.9-6.7,16.8-6.7,32.7v89.9h-22.9V339.6z"/>
	<path class="st2" d="M1176.4,339.6h22.9v98.7c0,13.9,2,23.7,6,29.3c4,5.6,10.7,8.4,20.2,8.4c9.2,0,15.8-2.8,19.7-8.3
		c3.9-5.5,5.9-15.3,5.9-29.5v-98.7h22.9v101.9c0,17.9-3.9,30.9-11.7,39.1c-7.8,8.2-20.1,12.3-36.9,12.3c-16.9,0-29.3-4.1-37.2-12.4
		c-7.9-8.2-11.8-21.3-11.8-39.1V339.6z"/>
	<path class="st2" d="M1317.1,339.6h22.9v12.6c4.2-4.9,8.9-8.5,14.2-10.9c5.3-2.4,11.3-3.5,18-3.5c15.9,0,27.5,6,34.6,18
		c7.1,12,10.7,31.8,10.7,59.3c0,26.8-3.7,46.5-11.1,59c-7.4,12.5-18.9,18.8-34.6,18.8c-6.3,0-12.2-1.1-17.5-3.3
		c-5.4-2.2-10.1-5.5-14.3-9.9v70.7h-22.9V339.6z M1366,477.5c10.2,0,17.4-4.4,21.6-13.2c4.2-8.8,6.3-25,6.3-48.6
		c0-23.8-2.1-40.2-6.3-49c-4.2-8.8-11.4-13.3-21.6-13.3c-10,0-17.1,4.6-21.3,13.9c-4.2,9.3-6.3,25.4-6.3,48.4
		c0,22.9,2.1,39,6.3,48.1C1348.9,473,1356,477.5,1366,477.5z"/>
	<path class="st2" d="M1443.3,414.6c0-25.9,4.5-45.4,13.4-58.5c8.9-13.1,22.3-19.6,40.1-19.6c17.3,0,30.5,6.6,39.4,19.9
		c9,13.2,13.5,32.7,13.5,58.2c0,25.8-4.5,45.3-13.4,58.5c-8.9,13.2-22.1,19.8-39.5,19.8c-17.8,0-31.2-6.5-40.1-19.6
		C1447.8,460.2,1443.3,440.6,1443.3,414.6z M1496.4,352.5c-10.2,0-17.7,4.9-22.5,14.7c-4.7,9.8-7.1,25.6-7.1,47.4
		c0,21.9,2.4,37.8,7.1,47.7c4.7,9.9,12.2,14.9,22.5,14.9c10,0,17.4-5.1,22.3-15.3c4.9-10.2,7.3-25.8,7.3-46.9
		c0-21.2-2.4-36.9-7.3-47.2C1513.8,357.6,1506.4,352.5,1496.4,352.5z"/>
	<path class="st2" d="M1761.4,484.1c-5.3,2.5-11,4.3-17.2,5.6c-6.1,1.3-12.4,1.9-18.9,1.9c-25,0-43.6-9.2-55.6-27.5
		c-12.1-18.4-18.1-46.5-18.1-84.3c0-37.7,6.4-66.3,19.3-85.8c12.9-19.4,31.9-29.2,57.1-29.2c6.3,0,12.3,0.5,17.9,1.5
		c5.6,1,11,2.6,16.2,4.8v21.9c-5.9-3.2-11.4-5.5-16.4-6.9c-5-1.4-10-2.1-14.9-2.1c-18.2,0-31.6,7.5-40.1,22.6
		c-8.5,15-12.8,38.5-12.8,70.4c0,34.7,3.9,59.2,11.8,73.6c7.9,14.4,21,21.6,39.3,21.6c3.8,0,7.4-0.3,10.9-0.9
		c3.5-0.6,6.9-1.5,10.1-2.8c1.9-0.7,3.8-1.6,5.7-2.5c1.9-1,3.7-2,5.5-3.1V484.1z"/>
	<path class="st2" d="M1792.8,266.1h31.5c31.5,0,53.4,8,65.8,23.9c12.4,15.9,18.6,45.5,18.6,88.9c0,41.2-6.4,70.1-19.1,86.5
		c-12.8,16.5-34.8,24.7-66,24.7h-30.7V266.1z M1818.2,284.7v186.6h4.9c22.4,0,37.9-6.2,46.5-18.6c8.7-12.4,13-36.1,13-71
		c0-39.2-4.2-65.1-12.5-77.9c-8.3-12.7-23.5-19.1-45.5-19.1H1818.2z"/>
	<path class="st2" d="M1928.6,266.1h25.2l36,154.5c1,4,2.2,9.7,3.5,17.3c1.3,7.5,2.6,15.9,3.9,25.2c0.8-10,3-23.5,6.6-40.4l0.4-1.8
		l34.5-154.8h25.6l-56.1,224h-22.6L1928.6,266.1z"/>
	<path class="st2" d="M2186.2,429.8v4.8c0,13.2,2.5,23,7.5,29.5c5,6.5,12.6,9.7,22.8,9.7c11,0,19.4-4.1,25.1-12.3
		c5.7-8.2,8.6-20,8.6-35.6c0-18.3-3.6-31-10.7-38.2c-7.1-7.2-19.6-10.7-37.4-10.7c-0.9,0-2.3,0.1-4.3,0.2c-2,0.1-3.5,0.2-4.6,0.2
		l0.2-18.9c1.1,0.1,2.4,0.2,3.8,0.2c1.4,0.1,3.4,0.1,6.1,0.1c16,0,27.5-3.3,34.4-10c6.9-6.6,10.3-17.8,10.3-33.5
		c0-10.6-2.6-18.7-7.7-24.3c-5.1-5.6-12.5-8.4-22.3-8.4c-9,0-15.9,2.8-20.8,8.5c-4.9,5.7-7.4,13.6-7.4,23.9v2.3l-24.8-0.2
		c0.5-17.6,5.3-31,14.5-40.2c9.2-9.2,22.3-13.8,39.3-13.8c16.8,0,29.9,4.8,39.4,14.4c9.5,9.6,14.2,23,14.2,40
		c0,13.7-2.7,24.8-8.2,33.1c-5.5,8.4-13.5,13.8-24,16.1c11.8,3.6,20.5,10.2,26.3,19.9c5.7,9.7,8.6,22.8,8.6,39.1
		c0,21.1-5.3,37.5-15.8,49.3c-10.6,11.8-25.2,17.6-43.9,17.6c-17.3,0-30.7-5.1-40.2-15.2c-9.5-10.1-14.2-24.4-14.2-42.8v-5.1H2186.2
		z"/>
	<path class="st2" d="M2340.8,345.3l40.8-79.2h26l-57.8,108c5.1-3.5,10.1-6,15.3-7.6c5.1-1.6,10.6-2.4,16.6-2.4
		c15,0,27.2,5.7,36.5,17c9.3,11.4,13.9,26.5,13.9,45.4c0,20.5-5.1,36.6-15.2,48.5c-10.1,11.9-23.8,17.8-41.1,17.8
		c-18.8,0-33.5-5.6-44-16.8c-10.5-11.2-15.7-26.9-15.7-47.2c0-12.9,2-26.1,6-39.6C2325.9,375.8,2332.2,361.1,2340.8,345.3z
		 M2373.8,381.3c-10.6,0-18.8,3.9-24.6,11.6c-5.8,7.7-8.7,18.6-8.7,32.8c0,15.9,2.9,28.1,8.8,36.6c5.9,8.5,14.3,12.8,25.3,12.8
		c10.4,0,18.4-4.1,24.1-12.3c5.7-8.2,8.5-19.7,8.5-34.5c0-15.2-2.9-26.9-8.6-34.9C2392.8,385.4,2384.5,381.3,2373.8,381.3z"/>
	<path class="st2" d="M2459.7,378.3c0-39.4,5-68.4,15-87.1c10-18.7,25.5-28,46.6-28c21.1,0,36.7,9.4,46.7,28.2
		c10,18.8,15.1,47.7,15.1,86.9c0,39.1-5,68-15.1,86.6c-10,18.7-25.6,28-46.7,28c-21.1,0-36.6-9.3-46.6-27.8
		C2464.7,446.6,2459.7,417.7,2459.7,378.3z M2521.3,282.1c-12.5,0-21.6,7.8-27.4,23.5c-5.8,15.7-8.6,40.6-8.6,74.9
		c0,32,2.9,55.6,8.8,70.9c5.9,15.2,14.9,22.9,27.2,22.9c12.6,0,21.9-7.7,27.8-23.1c5.9-15.4,8.8-39.8,8.8-73.1
		c0-33.2-2.9-57.5-8.8-72.9C2543.2,289.7,2533.9,282.1,2521.3,282.1z"/>
	<path class="st2" d="M2639.3,267.6c8.2,0,15.3,2.9,21.2,8.8c5.9,5.9,8.8,12.9,8.8,21.1c0,8.3-2.9,15.3-8.8,21.1
		c-5.9,5.8-13,8.7-21.4,8.7c-8.4,0-15.6-2.9-21.4-8.6c-5.8-5.8-8.7-12.8-8.7-21.2c0-8.3,3-15.4,8.9-21.2
		C2623.8,270.5,2631,267.6,2639.3,267.6z M2662.6,297.5c0-6.3-2.3-11.8-6.9-16.3c-4.6-4.6-10.1-6.9-16.5-6.9
		c-6.5,0-12.1,2.3-16.6,6.8c-4.5,4.5-6.8,10-6.8,16.5c0,6.5,2.3,12,6.9,16.5c4.6,4.5,10.1,6.8,16.5,6.8s12-2.3,16.5-6.8
		S2662.6,304,2662.6,297.5z"/>
</g>
<text transform="matrix(0.976 0 0 1 864.0619 -341.0163)" class="st2" style="font-family:'FuturaBT-LightCondensed'; font-size:445.9645px;">Grupo CDV 360°</text>
</svg>
