<?xml version="1.0" encoding="utf-8"?>
<!-- Generator: Adobe Illustrator 23.0.0, SVG Export Plug-In . SVG Version: 6.00 Build 0)  -->
<svg version="1.1" id="Capa_1" xmlns="http://www.w3.org/2000/svg" xmlns:xlink="http://www.w3.org/1999/xlink" x="0px" y="0px"
	 viewBox="0 0 1080 1080" style="enable-background:new 0 0 1080 1080;" xml:space="preserve">
<style type="text/css">
	.st0{fill:none;}
	.st1{opacity:0.83;}
	.st2{fill:#87888B;}
	.st3{fill:none;stroke:#0056A9;stroke-width:12.4673;stroke-miterlimit:10;}
	.st4{fill:none;stroke:#95DFDF;stroke-width:12.4673;stroke-miterlimit:10;}
	.st5{fill:url(#SVGID_1_);stroke:#0057AB;stroke-width:9.3504;stroke-miterlimit:10;}
	.st6{fill:#D6E03D;}
	.st7{fill:url(#SVGID_2_);stroke:#4ECFCD;stroke-width:9.3504;stroke-miterlimit:10;}
	.st8{fill:#FFFFFF;}
	.st9{fill:#F6FAB6;}
	.st10{fill:#FBFCE3;}
	.st11{fill:#E5EB8B;}
	.st12{fill:url(#SVGID_3_);stroke:#0057AB;stroke-width:9.3504;stroke-miterlimit:10;}
	.st13{fill:url(#SVGID_4_);stroke:#4ECFCD;stroke-width:9.3504;stroke-miterlimit:10;}
</style>
<image style="overflow:visible;" width="175" height="162" xlink:href="../../../../Descargas/image.png"  transform="matrix(1 0 0 1 140.3269 1471.5623)">
</image>
<line class="st0" x1="445.4" y1="585.5" x2="435.5" y2="584.5"/>
<g class="st1">
	<path class="st2" d="M227.8,1266c22,0,39.9,16.4,39.9,36.6s-17.8,36.6-39.9,36.6c-22,0-39.9-16.4-39.9-36.6S205.8,1266,227.8,1266
		 M227.8,1263c-23.6,0-42.9,17.8-42.9,39.6c0,21.8,19.2,39.6,42.9,39.6c23.6,0,42.9-17.8,42.9-39.6
		C270.7,1280.8,251.5,1263,227.8,1263L227.8,1263z"/>
</g>
<g>
	<g>
		<g>
			<path class="st3" d="M521.5,1054l7.5-149.8c10.2-0.4,20.6-1.1,31-2.2l0.1,0c8.6-0.9,17.4-2,26-3.4
				c102.1-16.1,191.9-62.8,252.9-131.4c44.9-50.6,68.8-108.1,69.2-164.8l149.6-0.7c-0.3,211.2-189.3,403.9-448.5,444.8
				c-11.4,1.8-22.7,3.2-34,4.4C557.3,1052.7,539.3,1053.8,521.5,1054z"/>
			<path class="st4" d="M584.1,26.6l-16.3,149.1c-10.2-0.2-20.7-0.1-31.1,0.4l-0.1,0c-8.7,0.4-17.5,1-26.2,1.8
				c-102.9,10-195.3,51.4-260.2,116.3c-47.8,47.9-75,103.9-78.8,160.5L22,446.6C34.7,235.7,234.8,54.5,495.9,28.9
				c11.5-1.1,22.9-1.9,34.2-2.4C548.3,25.8,566.4,25.7,584.1,26.6z"/>
			
				<linearGradient id="SVGID_1_" gradientUnits="userSpaceOnUse" x1="165.2545" y1="822.9255" x2="520.1349" y2="822.9255" gradientTransform="matrix(-1 0 0 -1 1195.0162 1237.65)">
				<stop  offset="0" style="stop-color:#0055A1"/>
				<stop  offset="0.738" style="stop-color:#00A4A8"/>
			</linearGradient>
			<path class="st5" d="M674.9,245.7l64.8-141.9c170.6,72.6,290.1,241.7,290.1,438.8c0,64.9-13,126.7-36.5,183.1l-145.6-56.1
				c16.9-39,26.2-81.9,26.2-127C873.9,408.7,791.6,293.8,674.9,245.7z"/>
			<g>
				<g>
					<path class="st6" d="M535.9,879.7c-200.4,0-363.4-154.3-363.4-343.9c0-189.6,163-343.9,363.4-343.9
						c200.4,0,363.4,154.3,363.4,343.9C899.3,725.4,736.3,879.7,535.9,879.7z M535.9,229C356,229,209.7,366.6,209.7,535.8
						c0,169.2,146.4,306.8,326.3,306.8S862.2,705,862.2,535.8C862.2,366.6,715.8,229,535.9,229z"/>
				</g>
			</g>
			<linearGradient id="SVGID_2_" gradientUnits="userSpaceOnUse" x1="40.4528" y1="659.7719" x2="395.3332" y2="659.7719">
				<stop  offset="0" style="stop-color:#DBDF38"/>
				<stop  offset="0.7765" style="stop-color:#00AFA7"/>
			</linearGradient>
			<path class="st7" d="M395.3,828.8l-64.8,141.9C160,898.2,40.5,729.1,40.5,532c0-64.9,13-126.7,36.5-183.1l145.6,56.1
				c-16.9,39-26.2,81.9-26.2,127C196.3,665.8,278.6,780.7,395.3,828.8z"/>
		</g>
		<g>
			<g>
				<path class="st8" d="M415.5,594.5c-0.5-1.1-0.1-2.6,1.5-3.3c11-4.7,20.3-19.4,6.8-51.1c-11.9-27.8-20.8-38.6-31.5-34
					c-13.8,5.9-12.5,38.5-12.1,41.6c0.3,2.2-0.2,3.3-2.1,4.2c-1.4,0.6-2.5-0.5-3.2-2.9c-7.3-25.5-0.6-51.5,16.7-58.9
					c17.1-7.3,36.5,3.9,49.6,34.4c13.8,32.2,7.2,52.6-2,61.4l0.2,0.5c12.8-0.6,30.9,6,47.1,43.9c14.1,33,13.8,57.2-11.8,68.2
					c-23.1,9.9-42.5-15-52.9-39.2c-0.9-2.2-1-3.8,0.1-4.3c1.9-0.8,3.4-0.5,4.4,2c5,11.6,26.5,34.5,40.8,28.4
					c10.2-4.4,12.5-14.8-2.7-50.3c-13.3-31.1-32.8-40.9-44.1-36.1c-1.7,0.7-2.8,0.2-3.3-0.9L415.5,594.5z"/>
				<path class="st8" d="M522.6,495.2c0.8,1.9,0.5,3.4-0.9,4c-1.1,0.5-2.9,0-3.8-2c-3.1-7.2-26.2-33.7-41-27.3
					c-10.5,4.5-6,25.4,14.5,73.2l0.5-0.2c1.6-6.2,5.5-13.1,11.5-15.7c20.4-8.7,42.3,8.2,57.4,43.4c13.2,30.8,23.9,80.9-1.4,91.7
					c-20.1,8.6-43.6-6-83.6-99.3c-22-51.4-31-95.8-4.8-107C493.3,446.5,513.9,474.8,522.6,495.2z M540.5,579.3
					c-11.7-27.2-21.5-42.5-32.8-37.7c-11.6,5-7.2,22.6-0.3,38.9c23.6,55,35.7,72.6,46.1,68.1C563.7,644.2,559.3,623.3,540.5,579.3z"
					/>
				<path class="st8" d="M629.3,497.3c28.5,66.6,42,117.1,14.5,128.9c-27.8,11.9-55-32.7-83.6-99.3c-19.1-44.6-32.6-95.1-4.8-107
					C583,408.1,610.2,452.7,629.3,497.3z M608.6,505.2c-25-58.3-37.1-75.9-47.3-71.5c-10.5,4.5-6,25.4,18.9,83.7
					c35.1,82,47.2,99.6,57.7,95.1C648.2,608,643.8,587.1,608.6,505.2z"/>
			</g>
			<g>
				<path class="st8" d="M676.8,424.3c12.5,29.2,16.6,52.1-2.8,60.5c-19.6,8.4-33.4-10.4-45.9-39.6c-8.4-19.5-12.5-42.5,7.1-50.9
					C654.6,386,668.4,404.8,676.8,424.3z M662.3,430.1c-11-25.6-17.3-32.9-24.5-29.8c-7.4,3.2-6.5,12.8,4.5,38.3
					c15.4,36,21.7,43.2,29.1,40.1C678.6,475.7,677.7,466.1,662.3,430.1z"/>
			</g>
		</g>
	</g>
	<g>
		<g>
			<path class="st9" d="M780.3,608.8c4.5,2,6.7,7.2,4.8,11.8c-37.7,94.1-135.8,161.3-250.5,161.3c-31,0-60.8-4.9-88.5-13.9
				c-5.4-1.8-8.1-7.8-5.6-12.9l0,0c2-4.2,6.9-6.2,11.4-4.8c25.9,8.4,53.7,13,82.8,13c107.1,0,198.4-62.3,233.3-149.6
				C769.8,608.8,775.5,606.6,780.3,608.8L780.3,608.8z"/>
			<path class="st9" d="M632.2,316.3L632.2,316.3c-2.1,4.3-7,6.1-11.4,4.6c-26.9-9.1-55.9-14.1-86.1-14.1
				c-104.6,0-194.1,59.4-230.7,143.4c-2.1,4.9-8,6.8-12.7,4.5l0,0c-4.3-2.2-6.3-7.4-4.4-11.9c39.6-90.6,135.7-154.6,247.8-154.6
				c32.4,0,63.4,5.3,92.1,15.1C632.1,305.1,634.7,311.2,632.2,316.3z"/>
		</g>
	</g>
	<g>
		<g>
			<path class="st10" d="M753,504.5L753,504.5c-4.4,0.8-8.5-2.1-9.4-6.5c-18.9-91.2-106.1-160.2-210.9-160.2
				c-10.5,0-20.8,0.7-30.9,2c-4,0.5-7.8-1.9-8.9-5.8l0,0c-1.3-4.7,1.7-9.5,6.6-10.2c10.9-1.5,22-2.2,33.3-2.2
				c112.5,0,206.5,74.8,226.7,173.4C760.4,499.5,757.4,503.8,753,504.5z"/>
			<path class="st10" d="M580.4,735c1.2,4.6-1.7,9.3-6.3,10.1c-13.4,2.3-27.2,3.4-41.3,3.4c-111.2,0-204.3-73-226-169.9
				c-1.1-4.7,2.1-9.3,6.9-9.9l0,0c4.2-0.5,7.9,2.3,8.8,6.4c20.1,89.8,106.6,157.3,210.3,157.3c13.1,0,26-1.1,38.4-3.2
				C575.3,728.5,579.3,730.9,580.4,735L580.4,735z"/>
		</g>
	</g>
	<g>
		<path class="st11" d="M571.3,802.7c1.4,8.2-4.6,15.8-12.8,16.3c-7.5,0.5-15,0.8-22.7,0.8c-159.8,0-291.7-112.6-307.9-256.7
			c-1-8.5,5.9-15.8,14.4-15.5l0,0c6.9,0.2,12.7,5.4,13.4,12.3c14.5,130.3,134.3,231.9,280,231.9c7,0,14-0.2,20.9-0.7
			C563.9,790.6,570.2,795.7,571.3,802.7L571.3,802.7z"/>
		<path class="st11" d="M831.1,520.1L831.1,520.1c-7.6,0.6-14.3-4.9-15.1-12.4C802.2,376.9,682,274.6,535.8,274.6
			c-7.8,0-15.4,0.3-23,0.8c-7.4,0.5-13.8-4.9-14.7-12.3v0c-1-7.9,4.9-15.1,12.9-15.7c8.2-0.6,16.5-0.9,24.9-0.9
			c160.3,0,292.6,113.3,308.1,258.1C844.8,512.5,839,519.5,831.1,520.1z"/>
	</g>
</g>
<line class="st0" x1="-682.1" y1="585.5" x2="-692" y2="584.5"/>
<g>
	<g>
		<g>
			<path class="st3" d="M-606,1054l7.5-149.8c10.2-0.4,20.6-1.1,31-2.2l0.1,0c8.6-0.9,17.4-2,26-3.4
				c102.1-16.1,191.9-62.8,252.9-131.4c44.9-50.6,68.8-108.1,69.2-164.8l149.6-0.7c-0.3,211.2-189.3,403.9-448.5,444.8
				c-11.4,1.8-22.7,3.2-34,4.4C-570.2,1052.7-588.2,1053.8-606,1054z"/>
			<path class="st4" d="M-543.4,26.6l-16.3,149.1c-10.2-0.2-20.7-0.1-31.1,0.4l-0.1,0c-8.7,0.4-17.5,1-26.2,1.8
				c-102.9,10-195.3,51.4-260.2,116.3C-925,342-952.3,398-956,454.7l-149.4-8.1c12.7-210.8,212.8-392.1,473.9-417.6
				c11.5-1.1,22.9-1.9,34.2-2.4C-579.2,25.8-561.1,25.7-543.4,26.6z"/>
			
				<linearGradient id="SVGID_3_" gradientUnits="userSpaceOnUse" x1="1292.7439" y1="822.9255" x2="1647.6243" y2="822.9255" gradientTransform="matrix(-1 0 0 -1 1195.0162 1237.65)">
				<stop  offset="0" style="stop-color:#0055A1"/>
				<stop  offset="0.738" style="stop-color:#00A4A8"/>
			</linearGradient>
			<path class="st12" d="M-452.6,245.7l64.8-141.9c170.6,72.6,290.1,241.7,290.1,438.8c0,64.9-13,126.7-36.5,183.1l-145.6-56.1
				c16.9-39,26.2-81.9,26.2-127C-253.6,408.7-335.9,293.8-452.6,245.7z"/>
			<g>
				<g>
					<path class="st6" d="M-591.6,879.7c-200.4,0-363.4-154.3-363.4-343.9c0-189.6,163-343.9,363.4-343.9
						c200.4,0,363.4,154.3,363.4,343.9C-228.2,725.4-391.2,879.7-591.6,879.7z M-591.6,229c-179.9,0-326.3,137.6-326.3,306.8
						c0,169.2,146.4,306.8,326.3,306.8S-265.3,705-265.3,535.8C-265.3,366.6-411.6,229-591.6,229z"/>
				</g>
			</g>
			<linearGradient id="SVGID_4_" gradientUnits="userSpaceOnUse" x1="-1087.0366" y1="659.7719" x2="-732.1562" y2="659.7719">
				<stop  offset="0" style="stop-color:#DBDF38"/>
				<stop  offset="0.7765" style="stop-color:#00AFA7"/>
			</linearGradient>
			<path class="st13" d="M-732.2,828.8l-64.8,141.9C-967.5,898.2-1087,729.1-1087,532c0-64.9,13-126.7,36.5-183.1l145.6,56.1
				c-16.9,39-26.2,81.9-26.2,127C-931.2,665.8-848.8,780.7-732.2,828.8z"/>
		</g>
		<g>
			<g>
				
					<text transform="matrix(0.9191 -0.394 0.394 0.9191 -686.5612 713.1509)" class="st2" style="font-family:'BirchStd'; font-size:299.2142px;">360</text>
				
					<text transform="matrix(1.477 -0.6331 0.394 0.9191 -483.3267 497.5917)" class="st2" style="font-family:'BirchStd'; font-size:131.2567px;">0</text>
			</g>
		</g>
	</g>
	<g>
		<g>
			<path class="st9" d="M-347.2,608.8c4.5,2,6.7,7.2,4.8,11.8c-37.7,94.1-135.8,161.3-250.5,161.3c-31,0-60.8-4.9-88.5-13.9
				c-5.4-1.8-8.1-7.8-5.6-12.9l0,0c2-4.2,6.9-6.2,11.4-4.8c25.9,8.4,53.7,13,82.8,13c107.1,0,198.4-62.3,233.3-149.6
				C-357.7,608.8-352,606.6-347.2,608.8L-347.2,608.8z"/>
			<path class="st9" d="M-495.3,316.3L-495.3,316.3c-2.1,4.3-7,6.1-11.4,4.6c-26.9-9.1-55.9-14.1-86.1-14.1
				c-104.6,0-194.1,59.4-230.7,143.4c-2.1,4.9-8,6.8-12.7,4.5v0c-4.3-2.2-6.3-7.4-4.4-11.9c39.6-90.6,135.7-154.6,247.8-154.6
				c32.4,0,63.4,5.3,92.1,15.1C-495.4,305.1-492.7,311.2-495.3,316.3z"/>
		</g>
	</g>
	<g>
		<g>
			<path class="st10" d="M-374.5,504.5L-374.5,504.5c-4.4,0.8-8.5-2.1-9.4-6.5c-18.9-91.2-106.1-160.2-210.9-160.2
				c-10.5,0-20.8,0.7-30.9,2c-4,0.5-7.8-1.9-8.9-5.8l0,0c-1.3-4.7,1.7-9.5,6.6-10.2c10.9-1.5,22-2.2,33.3-2.2
				c112.5,0,206.5,74.8,226.7,173.4C-367.1,499.5-370.1,503.8-374.5,504.5z"/>
			<path class="st10" d="M-547.1,735c1.2,4.6-1.7,9.3-6.3,10.1c-13.4,2.3-27.2,3.4-41.3,3.4c-111.2,0-204.3-73-226-169.9
				c-1.1-4.7,2.1-9.3,6.9-9.9l0,0c4.2-0.5,7.9,2.3,8.8,6.4c20.1,89.8,106.6,157.3,210.3,157.3c13.1,0,26-1.1,38.4-3.2
				C-552.2,728.5-548.2,730.9-547.1,735L-547.1,735z"/>
		</g>
	</g>
	<g>
		<path class="st11" d="M-556.1,802.7c1.4,8.2-4.6,15.8-12.8,16.3c-7.5,0.5-15,0.8-22.7,0.8c-159.8,0-291.7-112.6-307.9-256.7
			c-1-8.5,5.9-15.8,14.4-15.5l0,0c6.9,0.2,12.7,5.4,13.4,12.3c14.5,130.3,134.3,231.9,280,231.9c7,0,14-0.2,20.9-0.7
			C-563.6,790.6-557.3,795.7-556.1,802.7L-556.1,802.7z"/>
		<path class="st11" d="M-296.4,520.1L-296.4,520.1c-7.6,0.6-14.3-4.9-15.1-12.4c-13.9-130.9-134.1-233.1-280.2-233.1
			c-7.8,0-15.4,0.3-23,0.8c-7.4,0.5-13.8-4.9-14.7-12.3v0c-1-7.9,4.9-15.1,12.9-15.7c8.2-0.6,16.5-0.9,24.9-0.9
			c160.3,0,292.6,113.3,308.1,258.1C-282.7,512.5-288.5,519.5-296.4,520.1z"/>
	</g>
</g>
</svg>
